<?xml version="1.0" encoding="UTF-8" standalone="no"?>
<!-- Created with Inkscape (http://www.inkscape.org/) -->

<svg
   xmlns:dc="http://purl.org/dc/elements/1.1/"
   xmlns:cc="http://creativecommons.org/ns#"
   xmlns:rdf="http://www.w3.org/1999/02/22-rdf-syntax-ns#"
   xmlns:svg="http://www.w3.org/2000/svg"
   xmlns="http://www.w3.org/2000/svg"
   xmlns:sodipodi="http://sodipodi.sourceforge.net/DTD/sodipodi-0.dtd"
   xmlns:inkscape="http://www.inkscape.org/namespaces/inkscape"
   width="533.33722"
   height="533.33331"
   id="svg2"
   version="1.1"
   inkscape:version="0.92.1 r15371"
   sodipodi:docname="floppy-disk.svg"
   inkscape:export-filename="C:\Documents and Settings\fuerer_g\Desktop\x\Diskette_5_1-4.png"
   inkscape:export-xdpi="145.14"
   inkscape:export-ydpi="145.14"
   viewBox="0 0 500.00366 500">
  <title
     id="title3028">5.25&quot; Disk</title>
  <defs
     id="defs4">
    <linearGradient
       id="linearGradient5404">
      <stop
         style="stop-color:#000000;stop-opacity:1;"
         offset="0"
         id="stop5406" />
      <stop
         style="stop-color:#0000b2;stop-opacity:0.6226415;"
         offset="1"
         id="stop5408" />
    </linearGradient>
    <linearGradient
       id="linearGradient3798">
      <stop
         style="stop-color:#333333;stop-opacity:1;"
         offset="0"
         id="stop3800" />
      <stop
         style="stop-color:#333333;stop-opacity:0;"
         offset="1"
         id="stop3802" />
    </linearGradient>
  </defs>
  <sodipodi:namedview
     id="base"
     pagecolor="#ffffff"
     bordercolor="#666666"
     borderopacity="1.0"
     inkscape:pageopacity="0.0"
     inkscape:pageshadow="2"
     inkscape:zoom="1.52"
     inkscape:cx="200.97365"
     inkscape:cy="291.12365"
     inkscape:document-units="px"
     inkscape:current-layer="layer1"
     showgrid="true"
     inkscape:window-width="1920"
     inkscape:window-height="1016"
     inkscape:window-x="0"
     inkscape:window-y="36"
     inkscape:window-maximized="1"
     inkscape:showpageshadow="false"
     showborder="false">
    <inkscape:grid
       type="xygrid"
       id="grid4627"
       originx="0.0036714268"
       originy="2e-05" />
  </sodipodi:namedview>
  <metadata
     id="metadata7">
    <rdf:RDF>
      <cc:Work
         rdf:about="">
        <dc:format>image/svg+xml</dc:format>
        <dc:type
           rdf:resource="http://purl.org/dc/dcmitype/StillImage" />
        <dc:title>5.25&quot; Disk</dc:title>
        <dc:date>May 21st 2012</dc:date>
        <dc:creator>
          <cc:Agent>
            <dc:title>Gilbert F  rer</dc:title>
          </cc:Agent>
        </dc:creator>
        <dc:rights>
          <cc:Agent>
            <dc:title />
          </cc:Agent>
        </dc:rights>
        <dc:publisher>
          <cc:Agent>
            <dc:title />
          </cc:Agent>
        </dc:publisher>
        <dc:source />
        <dc:subject>
          <rdf:Bag>
            <rdf:li>Disk</rdf:li>
            <rdf:li>Diskette</rdf:li>
          </rdf:Bag>
        </dc:subject>
        <dc:description>A floppy disk as used with the C64.</dc:description>
      </cc:Work>
    </rdf:RDF>
  </metadata>
  <g
     inkscape:label="Ebene 1"
     inkscape:groupmode="layer"
     id="layer1"
     transform="translate(0.00367143,-552.36218)">
    <path
       inkscape:connector-curvature="0"
       style="fill:#000000;fill-rule:evenodd;stroke:none;stroke-width:3.88135338px;stroke-linecap:butt;stroke-linejoin:miter;stroke-opacity:1"
       d="M 253.0625,569.58093 C 124.34315,569.58093 20,674.01575 20,802.70593 c 0,128.69022 104.34315,232.99997 233.0625,232.99997 128.71936,0 233.0625,-104.30975 233.0625,-232.99997 0,-128.69018 -104.34314,-233.125 -233.0625,-233.125 z m -3.09375,181.78125 c 29.65177,0 53.6875,23.98106 53.6875,53.53125 0,29.55019 -24.03573,53.5 -53.6875,53.5 -29.65177,0 -53.6875,-23.94981 -53.6875,-53.5 0,-29.55019 24.03573,-53.53125 53.6875,-53.53125 z"
       id="path3052" />
    <path
       style="fill:#666666;fill-opacity:1;stroke:none;stroke-opacity:1"
       d="m 7.75,552.36218 c -4.2982759,0 -7.75,3.4352 -7.75,7.71875 v 484.56247 c 0,4.2836 3.4517241,7.7188 7.75,7.7188 h 181.9375 c -2.4e-4,-0.021 0,-0.042 0,-0.062 0,-3.37 3.105,-6.0938 6.9375,-6.0938 3.8325,0 6.9375,2.7238 6.9375,6.0938 0,0.021 2.4e-4,0.042 0,0.062 h 90.0625 c -2.4e-4,-0.021 0,-0.042 0,-0.062 0,-3.37 3.105,-6.0938 6.9375,-6.0938 3.8325,0 6.9375,2.7238 6.9375,6.0938 0,0.021 2.4e-4,0.042 0,0.062 h 184.75 c 4.29828,0 7.75,-3.4352 7.75,-7.7188 V 691.04968 h -13.375 c -0.95517,0 -1.75,-0.76685 -1.75,-1.71875 v -18.875 c 0,-0.9519 0.79483,-1.71875 1.75,-1.71875 H 500 V 560.08093 c 0,-4.28355 -3.45172,-7.71875 -7.75,-7.71875 z m 242.21875,176.125 c 42.33069,0 76.625,34.22057 76.625,76.40625 0,42.18568 -34.29431,76.375 -76.625,76.375 -42.33069,0 -76.65625,-34.18932 -76.65625,-76.375 0,-42.18568 34.32556,-76.40625 76.65625,-76.40625 z m 95.21875,85.125 c 6.12138,0 11.09375,4.96209 11.09375,11.0625 0,6.10041 -4.97237,11.03125 -11.09375,11.03125 -6.12138,0 -11.09375,-4.93084 -11.09375,-11.03125 0,-6.10041 4.97237,-11.0625 11.09375,-11.0625 z m -95.8125,93.125 c 13.81589,0 24.9375,11.34938 24.9375,25.4375 v 73.40622 c 0,14.0881 -11.12161,25.4375 -24.9375,25.4375 -13.81589,0 -24.9375,-11.3494 -24.9375,-25.4375 v -73.40622 c 0,-14.08812 11.12161,-25.4375 24.9375,-25.4375 z"
       id="rect3024"
       inkscape:connector-curvature="0" />
    <path
       style="opacity:0;fill:none;fill-opacity:1;fill-rule:nonzero;stroke-width:0.60000002;stroke-miterlimit:4;stroke-dasharray:none"
       d="M 3.8240594,498.08734 C 2.9095117,497.39286 1.6862085,495.545 1.1056079,493.98097 -0.37658415,489.98823 -0.37186926,9.9274646 1.1104038,5.6754134 1.6936421,4.0023351 3.3060212,2.1162283 4.6934684,1.4840651 6.5566375,0.63514841 70.809534,0.33467722 250.4791,0.33467722 h 243.26301 l 2.66161,2.09362208 2.66161,2.0936222 V 60.006994 115.49207 h -6.44231 c -4.28433,0 -6.83477,0.4729 -7.61396,1.41177 -0.76177,0.91787 -1.07009,4.89358 -0.88131,11.36421 l 0.29037,9.95245 7.3236,0.29679 7.32361,0.2968 v 178.24766 c 0,176.90081 -0.0153,178.26294 -2.02031,180.26798 -1.99106,1.99106 -3.36717,2.0203 -95.05413,2.0203 h -93.03383 l -2.83087,-3.03045 c -1.79227,-1.91864 -3.83062,-3.03046 -5.55584,-3.03046 -1.72522,0 -3.76356,1.11182 -5.55584,3.03046 l -2.83087,3.03045 h -43.45865 -43.45864 l -3.03046,-3.03045 c -1.85707,-1.85707 -4.07701,-3.03046 -5.73334,-3.03046 -1.70068,0 -3.75254,1.12366 -5.53375,3.03046 l -2.83087,3.03045 H 96.812402 c -71.500154,0 -91.6865,-0.27411 -92.9883426,-1.26269 z M 257.70488,478.13521 c 5.20893,-1.44702 11.96283,-7.68228 14.70878,-13.57926 l 2.37806,-5.10694 v -42.93148 -42.93149 l -2.37806,-5.10693 c -2.74595,-5.89699 -9.49985,-12.13225 -14.70878,-13.57927 -5.64889,-1.56926 -14.27679,-1.16566 -18.77625,0.8783 -5.31957,2.41651 -10.39765,7.58443 -13.02052,13.25088 -2.03446,4.39523 -2.10935,6.08125 -2.10935,47.48851 0,41.40725 0.0749,43.09327 2.10935,47.4885 2.62287,5.66645 7.70095,10.83437 13.02052,13.25088 4.49946,2.04396 13.12736,2.44756 18.77625,0.8783 z m 14.5812,-151.58303 c 27.69041,-8.59123 47.66282,-30.47736 53.70617,-58.85225 1.87538,-8.80539 1.28271,-26.44373 -1.19405,-35.53524 -7.08281,-25.99913 -27.8658,-46.59388 -54.74305,-54.24722 -10.25509,-2.92014 -28.8003,-3.11406 -38.67098,-0.40436 -29.64285,8.13757 -49.31351,27.97391 -56.69799,57.17554 -1.83597,7.26031 -2.07205,10.37642 -1.60443,21.17724 0.59616,13.76945 2.18811,20.27615 7.64449,31.245 10.32079,20.74763 29.62485,35.67225 53.17404,41.11064 8.91377,2.05852 29.21627,1.17558 38.3858,-1.66935 z m 79.40013,-44.67246 c 6.17698,-4.1532 7.04976,-12.60721 1.83945,-17.81753 -6.73978,-6.73977 -18.26739,-3.05441 -19.78974,6.32676 -1.69229,10.42842 9.17952,17.38795 17.95029,11.49077 z M 257.1797,137.25626 259.65917,134.7768 V 80.37312 c 0,-52.814282 -0.0584,-54.466363 -1.99902,-56.549372 -1.14257,-1.226415 -3.84745,-2.41008 -6.31345,-2.7628 -2.37294,-0.339409 -53.73624,-0.482341 -114.14067,-0.317626 L 27.379786,21.042804 25.079095,23.3431 22.778403,25.643395 22.489749,78.396413 c -0.158759,29.014157 -0.03962,53.763217 0.264767,54.997897 0.304381,1.23469 1.542768,3.16661 2.751973,4.29315 2.181508,2.03239 3.078432,2.04827 115.696161,2.04827 h 113.49759 z"
       id="path3026"
       inkscape:connector-curvature="0"
       transform="translate(0,552.36218)" />
  </g>
</svg>
