<?xml version="1.0" encoding="UTF-8" standalone="no"?>
<!-- Created with Inkscape (http://www.inkscape.org/) -->

<svg
   xmlns:dc="http://purl.org/dc/elements/1.1/"
   xmlns:cc="http://creativecommons.org/ns#"
   xmlns:rdf="http://www.w3.org/1999/02/22-rdf-syntax-ns#"
   xmlns:svg="http://www.w3.org/2000/svg"
   xmlns="http://www.w3.org/2000/svg"
   xmlns:sodipodi="http://sodipodi.sourceforge.net/DTD/sodipodi-0.dtd"
   xmlns:inkscape="http://www.inkscape.org/namespaces/inkscape"
   width="742.89545"
   height="476.35638"
   id="svg2"
   version="1.1"
   inkscape:version="0.92.1 r15371"
   style="display:inline"
   sodipodi:docname="tape-drive.svg"
   viewBox="0 0 696.46446 446.58411">
  <defs
     id="defs4">
    <inkscape:perspective
       sodipodi:type="inkscape:persp3d"
       inkscape:vp_x="0 : 526.18109 : 1"
       inkscape:vp_y="0 : 1000 : 0"
       inkscape:vp_z="744.09446 : 526.18109 : 1"
       inkscape:persp3d-origin="372.04723 : 350.78739 : 1"
       id="perspective10" />
    <inkscape:perspective
       id="perspective2824"
       inkscape:persp3d-origin="0.49999999 : 0.33333332 : 1"
       inkscape:vp_z="0.99999997 : 0.5 : 1"
       inkscape:vp_y="0 : 1000 : 0"
       inkscape:vp_x="0 : 0.5 : 1"
       sodipodi:type="inkscape:persp3d" />
    <inkscape:perspective
       id="perspective3804"
       inkscape:persp3d-origin="0.49999999 : 0.33333332 : 1"
       inkscape:vp_z="0.99999997 : 0.5 : 1"
       inkscape:vp_y="0 : 1000 : 0"
       inkscape:vp_x="0 : 0.5 : 1"
       sodipodi:type="inkscape:persp3d" />
    <inkscape:perspective
       id="perspective3834"
       inkscape:persp3d-origin="0.49999999 : 0.33333332 : 1"
       inkscape:vp_z="0.99999997 : 0.5 : 1"
       inkscape:vp_y="0 : 1000 : 0"
       inkscape:vp_x="0 : 0.5 : 1"
       sodipodi:type="inkscape:persp3d" />
    <inkscape:perspective
       id="perspective3862"
       inkscape:persp3d-origin="0.49999999 : 0.33333332 : 1"
       inkscape:vp_z="0.99999997 : 0.5 : 1"
       inkscape:vp_y="0 : 1000 : 0"
       inkscape:vp_x="0 : 0.5 : 1"
       sodipodi:type="inkscape:persp3d" />
  </defs>
  <sodipodi:namedview
     id="base"
     pagecolor="#ffffff"
     bordercolor="#666666"
     borderopacity="1.0"
     inkscape:pageopacity="0.0"
     inkscape:pageshadow="2"
     inkscape:zoom="1.1299949"
     inkscape:cx="514.131"
     inkscape:cy="241.05185"
     inkscape:document-units="px"
     inkscape:current-layer="layer2"
     showgrid="false"
     inkscape:window-width="1920"
     inkscape:window-height="1016"
     inkscape:window-x="0"
     inkscape:window-y="36"
     inkscape:window-maximized="1" />
  <metadata
     id="metadata7">
    <rdf:RDF>
      <cc:Work
         rdf:about="">
        <dc:format>image/svg+xml</dc:format>
        <dc:type
           rdf:resource="http://purl.org/dc/dcmitype/StillImage" />
        <dc:title />
      </cc:Work>
    </rdf:RDF>
  </metadata>
  <g
     inkscape:groupmode="layer"
     id="layer2"
     inkscape:label="Layer"
     style="display:inline"
     transform="translate(-0.8455123,-0.1590225)">
    <path
       style="fill:#646464;fill-opacity:0.88235294;stroke:#000000;stroke-width:4.03606844;stroke-linecap:round;stroke-miterlimit:4;stroke-dasharray:none;stroke-opacity:1"
       d="M 83.185547 329.45312 L 83.185547 474.33789 L 628.06445 474.33789 L 628.06445 329.45312 L 83.185547 329.45312 z M 272.08984 417.91797 A 16.502127 16.502127 0 0 1 288.5918 434.41992 A 16.502127 16.502127 0 0 1 272.08984 450.92188 A 16.502127 16.502127 0 0 1 255.58789 434.41992 A 16.502127 16.502127 0 0 1 272.08984 417.91797 z M 478.60156 418.86133 A 16.502127 16.502127 0 0 1 495.10352 435.36328 A 16.502127 16.502127 0 0 1 478.60156 451.86523 A 16.502127 16.502127 0 0 1 462.09961 435.36328 A 16.502127 16.502127 0 0 1 478.60156 418.86133 z M 199.48047 432.0625 A 16.502127 16.502127 0 0 1 215.98242 448.56445 A 16.502127 16.502127 0 0 1 199.48047 465.06641 A 16.502127 16.502127 0 0 1 182.97852 448.56445 A 16.502127 16.502127 0 0 1 199.48047 432.0625 z M 558.75586 432.0625 A 16.502127 16.502127 0 0 1 575.25781 448.56445 A 16.502127 16.502127 0 0 1 558.75586 465.06641 A 16.502127 16.502127 0 0 1 542.25391 448.56445 A 16.502127 16.502127 0 0 1 558.75586 432.0625 z "
       transform="matrix(0.93749999,0,0,0.93749999,0.8455123,0.1590225)"
       id="rect2831" />
    <path
       inkscape:connector-curvature="0"
       style="fill:#000000;stroke:#ffffff;stroke-width:2.5999999;stroke-miterlimit:4;stroke-dasharray:none"
       d="m 165.3125,135.59419 c -12.24399,0 -22.09375,9.84976 -22.09375,22.09375 v 76.90625 c 0,12.24399 9.84976,22.09375 22.09375,22.09375 h 374.84375 c 12.24399,0 22.09375,-9.84976 22.09375,-22.09375 v -76.90625 c 0,-12.24399 -9.84976,-22.09375 -22.09375,-22.09375 z m 114.875,22.96875 h 146.78125 c 4.40905,0 7.9375,3.5597 7.9375,7.96875 v 71.625 c 0,4.40905 -3.52845,7.9375 -7.9375,7.9375 H 280.1875 c -4.40905,0 -7.96875,-3.52845 -7.96875,-7.9375 v -71.625 c 0,-4.40905 3.5597,-7.96875 7.96875,-7.96875 z"
       id="rect3659" />
    <g
       id="g3661"
       transform="translate(0,4.4211664e-4)">
      <g
         style="stroke:#ffffff"
         id="g3631">
        <circle
           r="54.575554"
           cy="196.67795"
           cx="198.7374"
           style="fill:none;stroke:#ffffff;stroke-width:12.67141151;stroke-linecap:round;stroke-miterlimit:4;stroke-dasharray:none;stroke-opacity:1"
           id="path2833"
           transform="matrix(0.81159075,0,0,0.81159075,46.025027,41.518097)" />
        <g
           style="fill:#ffffff;stroke:none"
           id="g3621">
          <rect
             ry="0"
             y="198.61479"
             x="165.65108"
             height="7.8722625"
             width="12.737589"
             id="rect3609"
             style="fill:#ffffff;stroke:none" />
          <rect
             style="fill:#ffffff;stroke:none"
             id="rect3611"
             width="12.737589"
             height="7.8722625"
             x="235.06587"
             y="198.61479"
             ry="0" />
          <rect
             transform="rotate(48.548166)"
             style="fill:#ffffff;stroke:none"
             id="rect3613"
             width="12.737589"
             height="7.8722625"
             x="247.58968"
             y="-24.794073"
             ry="0" />
          <rect
             transform="rotate(48.548166)"
             ry="0"
             y="-24.794073"
             x="317.00449"
             height="7.8722625"
             width="12.737589"
             id="rect3615"
             style="fill:#ffffff;stroke:none" />
          <rect
             ry="0"
             y="283.03223"
             x="-78.655487"
             height="7.8722625"
             width="12.737589"
             id="rect3617"
             style="fill:#ffffff;stroke:none"
             transform="rotate(-53.045221)" />
          <rect
             style="fill:#ffffff;stroke:none"
             id="rect3619"
             width="12.737589"
             height="7.8722625"
             x="-9.2406759"
             y="283.03223"
             ry="0"
             transform="rotate(-53.045221)" />
        </g>
      </g>
      <g
         style="stroke:#ffffff"
         transform="translate(294.38616)"
         id="g3641">
        <circle
           r="54.575554"
           cy="196.67795"
           cx="198.7374"
           transform="matrix(0.81159075,0,0,0.81159075,46.025027,41.518097)"
           id="path3643"
           style="fill:none;stroke:#ffffff;stroke-width:12.67141151;stroke-linecap:round;stroke-miterlimit:4;stroke-dasharray:none;stroke-opacity:1" />
        <g
           style="fill:#ffffff;stroke:none"
           id="g3645">
          <rect
             style="fill:#ffffff;stroke:none"
             id="rect3647"
             width="12.737589"
             height="7.8722625"
             x="165.65108"
             y="198.61479"
             ry="0" />
          <rect
             ry="0"
             y="198.61479"
             x="235.06587"
             height="7.8722625"
             width="12.737589"
             id="rect3649"
             style="fill:#ffffff;stroke:none" />
          <rect
             ry="0"
             y="-24.794073"
             x="247.58968"
             height="7.8722625"
             width="12.737589"
             id="rect3651"
             style="fill:#ffffff;stroke:none"
             transform="rotate(48.548166)" />
          <rect
             style="fill:#ffffff;stroke:none"
             id="rect3653"
             width="12.737589"
             height="7.8722625"
             x="317.00449"
             y="-24.794073"
             ry="0"
             transform="rotate(48.548166)" />
          <rect
             transform="rotate(-53.045221)"
             style="fill:#ffffff;stroke:none"
             id="rect3655"
             width="12.737589"
             height="7.8722625"
             x="-78.655487"
             y="283.03223"
             ry="0" />
          <rect
             transform="rotate(-53.045221)"
             ry="0"
             y="283.03223"
             x="-9.2406759"
             height="7.8722625"
             width="12.737589"
             id="rect3657"
             style="fill:#ffffff;stroke:none" />
        </g>
      </g>
    </g>
  </g>
</svg>
